<?xml version="1.0" encoding="UTF-8"?>
<svg width="141px" height="47px" viewBox="0 0 141 47" version="1.1" xmlns="http://www.w3.org/2000/svg" xmlns:xlink="http://www.w3.org/1999/xlink">
    <!-- Generator: Sketch 64 (93537) - https://sketch.com -->
    <title>Artboard</title>
    <desc>Created with Sketch.</desc>
    <g id="Artboard" stroke="none" stroke-width="1" fill="currentColor" fill-rule="evenodd">
        <g id="Group" fill="currentColor">
            <path d="M82.4619613,6.00295274 C81.5853071,5.9729307 80.6828713,6.1725679 79.7986068,6.56884894 L70.8258891,10.6081651 C70.0326371,11.0494465 69.7626673,12.0521284 70.2282904,12.8251394 C70.6848277,13.5831644 71.6767617,13.8323171 72.442679,13.3820056 L81.1304006,9.48678605 C81.636987,9.26013553 82.0434753,9.19108828 82.3498266,9.20159388 C82.8078783,9.21660299 83.0611521,9.35469749 83.3053401,9.653404 C83.5510464,9.95210282 83.7664203,10.4759459 83.7664203,11.2594856 L83.7664203,21.5172428 C83.7664203,23.605145 81.8204872,26.797711 79.7955006,27.7057118 L72.4411259,31.0019121 C71.6478738,31.4431936 71.3779041,32.4458754 71.8435271,33.2188865 C72.3000645,33.9769115 73.2919984,34.2260641 74.0579157,33.7757526 L81.1272943,30.6236489 C84.6718459,29.035589 87,25.1764129 87,21.5171275 L87,11.2593703 C87,9.88745531 86.6147544,8.61160473 85.813927,7.6344376 C85.0161321,6.65876907 83.7784958,6.0478763 82.4620002,6.00284131 L82.4619613,6.00295274 Z M65.8571381,14.0026822 C65.5462703,13.985304 65.2263029,14.0519248 64.9396902,14.2155886 L57.8762774,17.2556471 C54.3338952,18.787986 52,22.5087874 52,26.0411609 L52,35.9389997 C52,37.705965 52.7157747,39.3353729 54.1169279,40.2592701 C55.5166044,41.1847615 57.4379148,41.2311084 59.2090283,40.4649352 L68.1742636,36.5703146 C68.967369,36.1445165 69.2372888,35.1770162 68.7717518,34.4311282 C68.3152989,33.6997003 67.3235484,33.4592898 66.5577727,33.893801 L57.8763162,37.6493811 C56.8633308,38.0867843 56.3234911,37.9607728 55.9565198,37.7189014 C55.5895445,37.47703 55.234689,36.9455018 55.234689,35.9388847 L55.234689,26.0410459 C55.234689,24.0278489 57.1832904,20.9473389 59.2091447,20.0708268 L66.5578892,16.8917277 C67.3509946,16.4659297 67.6209144,15.4984294 67.1553774,14.7525413 C66.8702865,14.2963027 66.3759369,14.0312727 65.8588462,14.0023151 L65.8571381,14.0026822 Z M68.9784812,15 C68.107465,15.0116433 67.4112663,15.7091801 67.4216189,16.5583136 L67.4216189,17.0565621 C66.3861755,17.6515618 65.5729515,18.619148 65.2411394,19.8278914 C64.5686416,22.2757308 66.082539,24.833298 68.5918348,25.4902599 C69.4524606,25.7155494 69.9398262,26.5372583 69.7087333,27.3763359 C69.477648,28.2153764 68.6347997,28.6890767 67.7741361,28.4652216 L67.0097927,28.2673714 C66.1713888,28.0377527 65.3018515,28.5128763 65.0633639,29.3288252 C64.820432,30.1620984 65.2929665,31.0069433 66.1906529,31.2423331 L66.9549963,31.4401833 L66.9549963,31.4416288 C67.1120135,31.4820669 67.2705135,31.515281 67.4290135,31.5398293 C67.4719709,32.3427868 68.1400395,32.9883249 68.9769644,33 C69.8657657,33.0114129 70.5901021,32.3081087 70.5797495,31.4416362 L70.5797495,30.949192 C71.6166718,30.3541923 72.426938,29.3822805 72.760229,28.1720953 C73.4327268,25.7242559 71.9188294,23.1681676 69.4095336,22.5112056 C68.5489078,22.2859161 68.0615422,21.4642072 68.2926351,20.6251297 C68.5237204,19.7860891 69.3665687,19.3109471 70.2272324,19.5348021 L70.9915758,19.7326523 C71.8299796,19.962271 72.7009958,19.4871474 72.9394834,18.6711985 C73.1824192,17.8379253 72.6713679,16.9728577 71.8107155,16.7576906 L71.0478511,16.5583986 C70.8908338,16.5179605 70.7323338,16.4977452 70.5738338,16.4731932 C70.5368036,15.6471292 69.8376281,14.9886145 68.9784812,15 L68.9784812,15 Z" id="Fill-1" transform="translate(69.500000, 23.500000) rotate(22.000000) translate(-69.500000, -23.500000) "></path>
            <text id="Pay" font-family="Roboto-BoldItalic, Roboto" font-size="28" font-style="italic" font-weight="bold" letter-spacing="-0.233333333">
                <tspan x="0.970117188" y="31">Pay</tspan>
            </text>
            <text id="App" font-family="Roboto-BoldItalic, Roboto" font-size="28" font-style="italic" font-weight="bold" letter-spacing="-0.233333333">
                <tspan x="93.0482422" y="31">App</tspan>
            </text>
        </g>
    </g>
</svg>