<?xml version="1.0" encoding="UTF-8"?>
<svg width="141px" height="47px" viewBox="0 0 141 47" version="1.1" xmlns="http://www.w3.org/2000/svg" xmlns:xlink="http://www.w3.org/1999/xlink">
    <g id="pay-app-logo" stroke="none" stroke-width="1" fill="currentColor" fill-rule="evenodd">
        <g id="Group" transform="translate(1.000000, 0.000000)" fill="currentColor">
            <path d="M81.4619613,6.00295274 C80.5853071,5.9729307 79.6828713,6.1725679 78.7986068,6.56884894 L69.8258891,10.6081651 C69.0326371,11.0494465 68.7626673,12.0521284 69.2282904,12.8251394 C69.6848277,13.5831644 70.6767617,13.8323171 71.442679,13.3820056 L80.1304006,9.48678605 C80.636987,9.26013553 81.0434753,9.19108828 81.3498266,9.20159388 C81.8078783,9.21660299 82.0611521,9.35469749 82.3053401,9.653404 C82.5510464,9.95210282 82.7664203,10.4759459 82.7664203,11.2594856 L82.7664203,21.5172428 C82.7664203,23.605145 80.8204872,26.797711 78.7955006,27.7057118 L71.4411259,31.0019121 C70.6478738,31.4431936 70.3779041,32.4458754 70.8435271,33.2188865 C71.3000645,33.9769115 72.2919984,34.2260641 73.0579157,33.7757526 L80.1272943,30.6236489 C83.6718459,29.035589 86,25.1764129 86,21.5171275 L86,11.2593703 C86,9.88745531 85.6147544,8.61160473 84.813927,7.6344376 C84.0161321,6.65876907 82.7784958,6.0478763 81.4620002,6.00284131 L81.4619613,6.00295274 Z M64.8571381,14.0026822 C64.5462703,13.985304 64.2263029,14.0519248 63.9396902,14.2155886 L56.8762774,17.2556471 C53.3338952,18.787986 51,22.5087874 51,26.0411609 L51,35.9389997 C51,37.705965 51.7157747,39.3353729 53.1169279,40.2592701 C54.5166044,41.1847615 56.4379148,41.2311084 58.2090283,40.4649352 L67.1742636,36.5703146 C67.967369,36.1445165 68.2372888,35.1770162 67.7717518,34.4311282 C67.3152989,33.6997003 66.3235484,33.4592898 65.5577727,33.893801 L56.8763162,37.6493811 C55.8633308,38.0867843 55.3234911,37.9607728 54.9565198,37.7189014 C54.5895445,37.47703 54.234689,36.9455018 54.234689,35.9388847 L54.234689,26.0410459 C54.234689,24.0278489 56.1832904,20.9473389 58.2091447,20.0708268 L65.5578892,16.8917277 C66.3509946,16.4659297 66.6209144,15.4984294 66.1553774,14.7525413 C65.8702865,14.2963027 65.3759369,14.0312727 64.8588462,14.0023151 L64.8571381,14.0026822 Z M67.9784812,15 C67.107465,15.0116433 66.4112663,15.7091801 66.4216189,16.5583136 L66.4216189,17.0565621 C65.3861755,17.6515618 64.5729515,18.619148 64.2411394,19.8278914 C63.5686416,22.2757308 65.082539,24.833298 67.5918348,25.4902599 C68.4524606,25.7155494 68.9398262,26.5372583 68.7087333,27.3763359 C68.477648,28.2153764 67.6347997,28.6890767 66.7741361,28.4652216 L66.0097927,28.2673714 C65.1713888,28.0377527 64.3018515,28.5128763 64.0633639,29.3288252 C63.820432,30.1620984 64.2929665,31.0069433 65.1906529,31.2423331 L65.9549963,31.4401833 L65.9549963,31.4416288 C66.1120135,31.4820669 66.2705135,31.515281 66.4290135,31.5398293 C66.4719709,32.3427868 67.1400395,32.9883249 67.9769644,33 C68.8657657,33.0114129 69.5901021,32.3081087 69.5797495,31.4416362 L69.5797495,30.949192 C70.6166718,30.3541923 71.426938,29.3822805 71.760229,28.1720953 C72.4327268,25.7242559 70.9188294,23.1681676 68.4095336,22.5112056 C67.5489078,22.2859161 67.0615422,21.4642072 67.2926351,20.6251297 C67.5237204,19.7860891 68.3665687,19.3109471 69.2272324,19.5348021 L69.9915758,19.7326523 C70.8299796,19.962271 71.7009958,19.4871474 71.9394834,18.6711985 C72.1824192,17.8379253 71.6713679,16.9728577 70.8107155,16.7576906 L70.0478511,16.5583986 C69.8908338,16.5179605 69.7323338,16.4977452 69.5738338,16.4731932 C69.5368036,15.6471292 68.8376281,14.9886145 67.9784812,15 L67.9784812,15 Z" id="Fill-1" transform="translate(68.500000, 23.500000) rotate(22.000000) translate(-68.500000, -23.500000) "></path>
            <path d="M4.26308594,31 L5.49355469,23.9863281 L9.26699219,24 C11.5638672,24 13.4528646,23.4166667 14.9339844,22.25 C16.4151042,21.0833333 17.2285807,19.5247396 17.3744141,17.5742188 C17.529362,15.6510417 16.9916016,14.0924479 15.7611328,12.8984375 C14.5306641,11.7044271 12.8399089,11.1074219 10.6888672,11.1074219 L10.6888672,11.1074219 L3.71621094,11.09375 L0.257226563,31 L4.26308594,31 Z M9.39003906,20.6914062 L6.05410156,20.6640625 L7.14785156,14.4160156 L10.9212891,14.4296875 C11.7871745,14.4661458 12.4411458,14.7669271 12.8832031,15.3320312 C13.3252604,15.8971354 13.4779297,16.6536458 13.3412109,17.6015625 C13.2044922,18.5494792 12.7806641,19.3014323 12.0697266,19.8574219 C11.3587891,20.4134115 10.4655599,20.6914062 9.39003906,20.6914062 L9.39003906,20.6914062 Z M21.9125651,31.2734375 C23.3162109,31.3098958 24.5740234,30.7721354 25.6860026,29.6601562 C25.6677734,30.1796875 25.7179036,30.6263021 25.8363932,31 L25.8363932,31 L29.6235026,31 L29.6371745,30.7402344 C29.4639974,30.2936198 29.3865234,29.7467448 29.4047526,29.0996094 L29.4047526,29.0996094 L29.473112,28.2246094 L30.6078776,21.1425781 C30.7628255,19.6295573 30.3663411,18.3922526 29.4184245,17.4306641 C28.4705078,16.4690755 27.1580078,15.9700521 25.4809245,15.9335938 C23.6671224,15.9153646 22.1427083,16.3460286 20.9076823,17.2255859 C19.6726563,18.1051432 19.0232422,19.2513021 18.9594401,20.6640625 L18.9594401,20.6640625 L22.8285807,20.6503906 C22.9470703,20.0579427 23.2159505,19.6044922 23.6352214,19.2900391 C24.0544922,18.9755859 24.5649089,18.827474 25.1664714,18.8457031 C25.6222005,18.8548177 25.9890625,18.9801432 26.2670573,19.2216797 C26.5450521,19.4632161 26.7068359,19.7981771 26.7524089,20.2265625 C26.7797526,20.5 26.7660807,20.7871094 26.7113932,21.0878906 L26.7113932,21.0878906 L26.519987,21.9765625 L24.7152995,21.9492188 C22.5460286,21.9492188 20.8165365,22.3798828 19.5268229,23.2412109 C18.2371094,24.1025391 17.5603516,25.3398438 17.4965495,26.953125 C17.441862,28.1653646 17.840625,29.1839193 18.6928385,30.0087891 C19.5450521,30.8336589 20.6182943,31.2552083 21.9125651,31.2734375 Z M23.0901085,28.2796615 L22.8695964,28.2792969 C22.3865234,28.2701823 22.0059896,28.1220703 21.7279948,27.8349609 C21.45,27.5478516 21.3474609,27.1582031 21.4203776,26.6660156 C21.4750651,26.2285156 21.6163411,25.859375 21.8442057,25.5585938 C22.473112,24.7291667 23.4985026,24.296224 24.9203776,24.2597656 L24.9203776,24.2597656 L26.2602214,24.2734375 L25.7817057,26.8300781 C24.9522786,27.8326823 23.9815755,28.3157552 22.8695964,28.2792969 L23.0901085,28.2796615 Z M32.6030599,37.015625 C33.6968099,37.015625 34.6606771,36.7102865 35.4946615,36.0996094 C36.3286458,35.4889323 37.0555339,34.531901 37.6753255,33.2285156 L37.6753255,33.2285156 L46.3296224,16.2070312 L42.0366536,16.2070312 L37.8120443,25.3671875 L36.745638,16.2070312 L32.7534505,16.2070312 L35.1733724,30.7949219 L34.3257161,32.3671875 C33.7423828,33.3242188 32.8218099,33.7845052 31.5639974,33.7480469 L31.5639974,33.7480469 L31.0307943,33.7207031 L30.7436849,36.7285156 C31.5548828,36.9199219 32.1746745,37.015625 32.6030599,37.015625 Z" id="Pay" fill-rule="nonzero"></path>
            <path d="M95.0423828,31 L97.0931641,26.8984375 L104.038477,26.8984375 L104.667383,31 L108.755273,31 L104.968164,11.09375 L101.263086,11.09375 L90.6263672,31 L95.0423828,31 Z M103.532617,23.5761719 L98.7337891,23.5761719 L102.411523,16.1660156 L103.532617,23.5761719 Z M112.486784,36.6875 L113.840299,29.6875 C114.669727,30.7174479 115.799935,31.250651 117.230924,31.2871094 C118.352018,31.3144531 119.372852,31.0364583 120.293424,30.453125 C121.213997,29.8697917 121.98418,28.9765625 122.603971,27.7734375 C123.223763,26.5703125 123.629362,25.1940104 123.820768,23.6445312 C123.893685,22.8789062 123.921029,22.2135417 123.902799,21.6484375 C123.848112,19.9075521 123.419727,18.5289714 122.617643,17.5126953 C121.81556,16.4964193 120.689909,15.9700521 119.24069,15.9335938 C117.791471,15.8971354 116.533659,16.4804688 115.467253,17.6835938 L115.467253,17.6835938 L115.727018,16.1933594 L112.172331,16.2070312 L108.631315,36.6875 L112.486784,36.6875 Z M116.595061,28.0873243 L116.383268,28.0878906 C115.271289,28.0514323 114.54668,27.5729167 114.20944,26.6523438 L114.20944,26.6523438 L115.316862,20.5546875 C116.046029,19.5703125 116.971159,19.0963542 118.092253,19.1328125 C118.748503,19.1510417 119.247526,19.4199219 119.589323,19.9394531 C119.93112,20.4589844 120.092904,21.1608073 120.074674,22.0449219 L120.074674,22.0449219 L119.992643,23.3574219 C119.755664,25.0436198 119.327279,26.2604167 118.707487,27.0078125 C118.087695,27.7552083 117.312956,28.1152344 116.383268,28.0878906 L116.595061,28.0873243 Z M127.675326,36.6875 L129.028841,29.6875 C129.858268,30.7174479 130.988477,31.250651 132.419466,31.2871094 C133.54056,31.3144531 134.561393,31.0364583 135.481966,30.453125 C136.402539,29.8697917 137.172721,28.9765625 137.792513,27.7734375 C138.412305,26.5703125 138.817904,25.1940104 139.00931,23.6445312 C139.082227,22.8789062 139.10957,22.2135417 139.091341,21.6484375 C139.036654,19.9075521 138.608268,18.5289714 137.806185,17.5126953 C137.004102,16.4964193 135.878451,15.9700521 134.429232,15.9335938 C132.980013,15.8971354 131.722201,16.4804688 130.655794,17.6835938 L130.655794,17.6835938 L130.91556,16.1933594 L127.360872,16.2070312 L123.819857,36.6875 L127.675326,36.6875 Z M131.783603,28.0873243 L131.57181,28.0878906 C130.459831,28.0514323 129.735221,27.5729167 129.397982,26.6523438 L129.397982,26.6523438 L130.505404,20.5546875 C131.23457,19.5703125 132.159701,19.0963542 133.280794,19.1328125 C133.937044,19.1510417 134.436068,19.4199219 134.777865,19.9394531 C135.119661,20.4589844 135.281445,21.1608073 135.263216,22.0449219 L135.263216,22.0449219 L135.181185,23.3574219 C134.944206,25.0436198 134.51582,26.2604167 133.896029,27.0078125 C133.276237,27.7552083 132.501497,28.1152344 131.57181,28.0878906 L131.783603,28.0873243 Z" id="App" fill-rule="nonzero"></path>
        </g>
    </g>
</svg>