<?xml version="1.0" encoding="UTF-8"?>
<svg width="47px" height="47px" viewBox="0 0 47 47" version="1.1" xmlns="http://www.w3.org/2000/svg" xmlns:xlink="http://www.w3.org/1999/xlink">
    <g id="Page-1" stroke="none" stroke-width="1" fill="currentColor" fill-rule="evenodd">
        <g id="rwa-icon-logo" transform="translate(-45.000000, 0.000000)" fill="currentColor">
            <path d="M81.4619613,6.00295274 C80.5853071,5.9729307 79.6828713,6.1725679 78.7986068,6.56884894 L69.8258891,10.6081651 C69.0326371,11.0494465 68.7626673,12.0521284 69.2282904,12.8251394 C69.6848277,13.5831644 70.6767617,13.8323171 71.442679,13.3820056 L80.1304006,9.48678605 C80.636987,9.26013553 81.0434753,9.19108828 81.3498266,9.20159388 C81.8078783,9.21660299 82.0611521,9.35469749 82.3053401,9.653404 C82.5510464,9.95210282 82.7664203,10.4759459 82.7664203,11.2594856 L82.7664203,21.5172428 C82.7664203,23.605145 80.8204872,26.797711 78.7955006,27.7057118 L71.4411259,31.0019121 C70.6478738,31.4431936 70.3779041,32.4458754 70.8435271,33.2188865 C71.3000645,33.9769115 72.2919984,34.2260641 73.0579157,33.7757526 L80.1272943,30.6236489 C83.6718459,29.035589 86,25.1764129 86,21.5171275 L86,11.2593703 C86,9.88745531 85.6147544,8.61160473 84.813927,7.6344376 C84.0161321,6.65876907 82.7784958,6.0478763 81.4620002,6.00284131 L81.4619613,6.00295274 Z M64.8571381,14.0026822 C64.5462703,13.985304 64.2263029,14.0519248 63.9396902,14.2155886 L56.8762774,17.2556471 C53.3338952,18.787986 51,22.5087874 51,26.0411609 L51,35.9389997 C51,37.705965 51.7157747,39.3353729 53.1169279,40.2592701 C54.5166044,41.1847615 56.4379148,41.2311084 58.2090283,40.4649352 L67.1742636,36.5703146 C67.967369,36.1445165 68.2372888,35.1770162 67.7717518,34.4311282 C67.3152989,33.6997003 66.3235484,33.4592898 65.5577727,33.893801 L56.8763162,37.6493811 C55.8633308,38.0867843 55.3234911,37.9607728 54.9565198,37.7189014 C54.5895445,37.47703 54.234689,36.9455018 54.234689,35.9388847 L54.234689,26.0410459 C54.234689,24.0278489 56.1832904,20.9473389 58.2091447,20.0708268 L65.5578892,16.8917277 C66.3509946,16.4659297 66.6209144,15.4984294 66.1553774,14.7525413 C65.8702865,14.2963027 65.3759369,14.0312727 64.8588462,14.0023151 L64.8571381,14.0026822 Z M67.9784812,14.9998546 C67.107465,15.0116433 66.4112663,15.7091801 66.4216189,16.5583136 L66.4216189,17.0565621 C65.3861755,17.6515618 64.5729515,18.619148 64.2411394,19.8278914 C63.5686416,22.2757308 65.082539,24.833298 67.5918348,25.4902599 C68.4524606,25.7155494 68.9398262,26.5372583 68.7087333,27.3763359 C68.477648,28.2153764 67.6347997,28.6890767 66.7741361,28.4652216 L66.0097927,28.2673714 C65.1713888,28.0377527 64.3018515,28.5128763 64.0633639,29.3288252 C63.820432,30.1620984 64.2929665,31.0069433 65.1906529,31.2423331 L65.9549963,31.4401833 L65.9549963,31.4416288 C66.1120135,31.4820669 66.2705135,31.515281 66.4290135,31.5398293 C66.4719709,32.3427868 67.1400395,32.9883249 67.9769644,33.000137 C68.8657657,33.0114129 69.5901021,32.3081087 69.5797495,31.4416362 L69.5797495,30.949192 C70.6166718,30.3541923 71.426938,29.3822805 71.760229,28.1720953 C72.4327268,25.7242559 70.9188294,23.1681676 68.4095336,22.5112056 C67.5489078,22.2859161 67.0615422,21.4642072 67.2926351,20.6251297 C67.5237204,19.7860891 68.3665687,19.3109471 69.2272324,19.5348021 L69.9915758,19.7326523 C70.8299796,19.962271 71.7009958,19.4871474 71.9394834,18.6711985 C72.1824192,17.8379253 71.6713679,16.9728577 70.8107155,16.7576906 L70.0478511,16.5583986 C69.8908338,16.5179605 69.7323338,16.4977452 69.5738338,16.4731932 C69.5368036,15.6471292 68.8376281,14.9886145 67.9784812,14.9998546 L67.9784812,14.9998546 Z" id="Fill-1" transform="translate(68.500000, 23.500000) rotate(22.000000) translate(-68.500000, -23.500000) "></path>
        </g>
    </g>
</svg>