<?xml version="1.0" encoding="UTF-8"?>
<svg width="235px" height="28px" viewBox="0 0 235 28" version="1.1" xmlns="http://www.w3.org/2000/svg" xmlns:xlink="http://www.w3.org/1999/xlink">
    <g id="rwa-app-logo" stroke="none" stroke-width="1" fill="currentColor" fill-rule="evenodd">
        <g id="rwa-Logo" transform="translate(-2.000000, -11.000000)" fill="currentColor">
            <path d="M56.6655599,33 L57.9370443,25.7128906 L61.1909505,25.7128906 L63.542513,33 L67.808138,33 L67.808138,32.78125 L65.0054036,24.7011719 C67.7306641,23.6347656 69.1889974,21.734375 69.3804036,19 C69.5171224,17.1497396 68.9907552,15.7050781 67.8013021,14.6660156 C66.611849,13.6269531 64.9142578,13.1074219 62.7085286,13.1074219 L62.7085286,13.1074219 L56.1186849,13.09375 L52.6597005,33 L56.6655599,33 Z M61.4917318,22.4179688 L58.511263,22.390625 L59.5503255,16.4160156 L62.9682943,16.4296875 C63.8615234,16.4661458 64.5132161,16.735026 64.9233724,17.2363281 C65.3335286,17.7376302 65.4748047,18.4303385 65.3472005,19.3144531 C65.2104818,20.2623698 64.7980469,21.0120443 64.1098958,21.5634766 C63.4217448,22.1149089 62.5490234,22.3997396 61.4917318,22.4179688 L61.4917318,22.4179688 Z M76.6802734,33.2734375 C77.8833984,33.2916667 79.0090495,33.0660807 80.0572266,32.5966797 C81.1054036,32.1272786 81.907487,31.4733073 82.4634766,30.6347656 L82.4634766,30.6347656 L80.6998047,28.4472656 C79.642513,29.5683594 78.4120443,30.1106771 77.0083984,30.0742188 C76.142513,30.0559896 75.4589193,29.7597656 74.9576172,29.1855469 C74.4563151,28.6113281 74.2238932,27.8457031 74.2603516,26.8886719 L74.2603516,26.8886719 L83.3248047,26.8886719 L83.5435547,25.2070312 C83.7805339,23.1197917 83.4091146,21.3948568 82.4292969,20.0322266 C81.4494792,18.6695964 80.0070964,17.9700521 78.1021484,17.9335938 C76.7623047,17.8971354 75.5409505,18.2047526 74.4380859,18.8564453 C73.3352214,19.508138 72.4328776,20.4355469 71.7310547,21.6386719 C71.0292318,22.8417969 70.6099609,24.1634115 70.4732422,25.6035156 L70.4732422,25.6035156 L70.4322266,26.1503906 C70.3228516,27.4628906 70.5142578,28.663737 71.0064453,29.7529297 C71.4986328,30.8421224 72.24375,31.6988932 73.2417969,32.3232422 C74.2398437,32.9475911 75.3860026,33.2643229 76.6802734,33.2734375 Z M79.8384766,24.2089844 L74.5337891,24.2089844 C74.9712891,23.0605469 75.4657552,22.2539062 76.0171875,21.7890625 C76.5686198,21.3242188 77.1998047,21.1009115 77.9107422,21.1191406 C78.4576172,21.1282552 78.9087891,21.2809245 79.2642578,21.5771484 C79.6197266,21.8733724 79.8430339,22.2858073 79.9341797,22.8144531 C79.9797526,23.1425781 79.9751953,23.4889323 79.9205078,23.8535156 L79.9205078,23.8535156 L79.8384766,24.2089844 Z M88.8746745,33.2734375 C90.2783203,33.3098958 91.5361328,32.7721354 92.648112,31.6601562 C92.6298828,32.1796875 92.680013,32.6263021 92.7985026,33 L92.7985026,33 L96.585612,33 L96.5992839,32.7402344 C96.4261068,32.2936198 96.3486328,31.7467448 96.366862,31.0996094 L96.366862,31.0996094 L96.4352214,30.2246094 L97.569987,23.1425781 C97.7249349,21.6295573 97.3284505,20.3922526 96.3805339,19.4306641 C95.4326172,18.4690755 94.1201172,17.9700521 92.4430339,17.9335938 C90.6292318,17.9153646 89.1048177,18.3460286 87.8697917,19.2255859 C86.6347656,20.1051432 85.9853516,21.2513021 85.9215495,22.6640625 L85.9215495,22.6640625 L89.7906901,22.6503906 C89.9091797,22.0579427 90.1780599,21.6044922 90.5973307,21.2900391 C91.0166016,20.9755859 91.5270182,20.827474 92.1285807,20.8457031 C92.5843099,20.8548177 92.9511719,20.9801432 93.2291667,21.2216797 C93.5071615,21.4632161 93.6689453,21.7981771 93.7145182,22.2265625 C93.741862,22.5 93.7281901,22.7871094 93.6735026,23.0878906 L93.6735026,23.0878906 L93.4820964,23.9765625 L91.6774089,23.9492188 C89.508138,23.9492188 87.7786458,24.3798828 86.4889323,25.2412109 C85.1992188,26.1025391 84.5224609,27.3398438 84.4586589,28.953125 C84.4039714,30.1653646 84.8027344,31.1839193 85.6549479,32.0087891 C86.5071615,32.8336589 87.5804036,33.2552083 88.8746745,33.2734375 Z M90.0522179,30.2796615 L89.8317057,30.2792969 C89.3486328,30.2701823 88.968099,30.1220703 88.6901042,29.8349609 C88.4121094,29.5478516 88.3095703,29.1582031 88.382487,28.6660156 C88.4371745,28.2285156 88.5784505,27.859375 88.8063151,27.5585938 C89.4352214,26.7291667 90.460612,26.296224 91.882487,26.2597656 L91.882487,26.2597656 L93.2223307,26.2734375 L92.7438151,28.8300781 C91.914388,29.8326823 90.9436849,30.3157552 89.8317057,30.2792969 L90.0522179,30.2796615 Z M102.77806,33 L106.414779,12 L102.545638,12 L98.8952474,33 L102.77806,33 Z M119.975456,33 L125.18444,19.7382812 L126.237174,33 L130.270378,33 L137.666862,13.09375 L133.578971,13.09375 L128.780143,27.2167969 L127.836784,13.09375 L124.432487,13.09375 L119.073112,27.1484375 L118.676628,13.09375 L114.766471,13.09375 L115.942253,33 L119.975456,33 Z M142.355404,33.2734375 C144.451758,33.3098958 146.213151,32.601237 147.639583,31.1474609 C149.066016,29.6936849 149.884049,27.7910156 150.093685,25.4394531 C150.221289,24.0449219 150.064062,22.7757161 149.622005,21.6318359 C149.179948,20.4879557 148.48724,19.5901693 147.54388,18.9384766 C146.600521,18.2867839 145.477148,17.9518229 144.173763,17.9335938 C142.113867,17.8789062 140.372982,18.5716146 138.951107,20.0117188 C137.529232,21.4518229 136.699805,23.3932292 136.462826,25.8359375 C136.335221,27.2122396 136.494727,28.4700521 136.941341,29.609375 C137.387956,30.7486979 138.080664,31.6396484 139.019466,32.2822266 C139.958268,32.9248047 141.070247,33.2552083 142.355404,33.2734375 Z M142.75326,30.1019646 L142.54681,30.1015625 C141.835872,30.0833333 141.28444,29.8212891 140.892513,29.3154297 C140.500586,28.8095703 140.295508,28.1191406 140.277279,27.2441406 C140.222591,25.3574219 140.539323,23.8557943 141.227474,22.7392578 C141.915625,21.6227214 142.833919,21.0826823 143.982357,21.1191406 C144.702409,21.1373698 145.25612,21.4085286 145.64349,21.9326172 C146.030859,22.4567057 146.242773,23.15625 146.279232,24.03125 C146.324805,25.8632812 146.010352,27.3421224 145.335872,28.4677734 C144.661393,29.5934245 143.731706,30.1380208 142.54681,30.1015625 L142.75326,30.1019646 Z M154.823242,33 L156.532227,23.3203125 C157.33431,22.2539062 158.423503,21.7389323 159.799805,21.7753906 C160.137044,21.7753906 160.569987,21.8209635 161.098633,21.9121094 L161.098633,21.9121094 L161.59082,18.0976562 C161.080404,17.9700521 160.633789,17.90625 160.250977,17.90625 C158.883789,17.90625 157.735352,18.6035156 156.805664,19.9980469 L156.805664,19.9980469 L157.161133,18.1933594 L153.538086,18.2070312 L150.967773,33 L154.823242,33 Z M164.857487,33 L168.494206,12 L164.625065,12 L160.974674,33 L164.857487,33 Z M173.169076,33.2871094 C174.636523,33.3235677 175.92168,32.6992188 177.024544,31.4140625 L177.024544,31.4140625 L176.805794,33 L180.251107,33 L183.887826,12 L180.018685,12 L178.569466,19.5742188 C177.72181,18.5078125 176.609831,17.9563802 175.233529,17.9199219 C174.121549,17.8925781 173.112109,18.156901 172.205208,18.7128906 C171.298307,19.2688802 170.532682,20.1210938 169.908333,21.2695312 C169.283984,22.4179688 168.862435,23.7486979 168.643685,25.2617188 L168.643685,25.2617188 L168.561654,25.8769531 C168.506966,26.4147135 168.493294,26.9707031 168.520638,27.5449219 C168.557096,28.6386719 168.764453,29.6298828 169.142708,30.5185547 C169.520964,31.4072266 170.056445,32.0885417 170.749154,32.5625 C171.441862,33.0364583 172.248503,33.2779948 173.169076,33.2871094 Z M174.505555,30.0762482 L174.303841,30.0742188 C173.100716,30.046875 172.453581,29.2311198 172.362435,27.6269531 C172.335091,27.1529948 172.357878,26.5696615 172.430794,25.8769531 C172.658659,24.1907552 173.084766,22.9716797 173.709115,22.2197266 C174.333464,21.4677734 175.115039,21.1054688 176.053841,21.1328125 C177.120247,21.1783854 177.831185,21.6888021 178.186654,22.6640625 L178.186654,22.6640625 L177.133919,28.5429688 C176.331836,29.609375 175.388477,30.1197917 174.303841,30.0742188 L174.505555,30.0762482 Z M192.718034,33 L194.768815,28.8984375 L201.714128,28.8984375 L202.343034,33 L206.430924,33 L202.643815,13.09375 L198.938737,13.09375 L188.302018,33 L192.718034,33 Z M201.208268,25.5761719 L196.40944,25.5761719 L200.087174,18.1660156 L201.208268,25.5761719 Z M210.162435,38.6875 L211.515951,31.6875 C212.345378,32.7174479 213.475586,33.250651 214.906576,33.2871094 C216.027669,33.3144531 217.048503,33.0364583 217.969076,32.453125 C218.889648,31.8697917 219.659831,30.9765625 220.279622,29.7734375 C220.899414,28.5703125 221.305013,27.1940104 221.496419,25.6445313 C221.569336,24.8789063 221.59668,24.2135417 221.578451,23.6484375 C221.523763,21.9075521 221.095378,20.5289714 220.293294,19.5126953 C219.491211,18.4964193 218.36556,17.9700521 216.916341,17.9335938 C215.467122,17.8971354 214.20931,18.4804688 213.142904,19.6835938 L213.142904,19.6835938 L213.402669,18.1933594 L209.847982,18.2070312 L206.306966,38.6875 L210.162435,38.6875 Z M214.270712,30.0873243 L214.058919,30.0878906 C212.94694,30.0514323 212.222331,29.5729167 211.885091,28.6523438 L211.885091,28.6523438 L212.992513,22.5546875 C213.72168,21.5703125 214.64681,21.0963542 215.767904,21.1328125 C216.424154,21.1510417 216.923177,21.4199219 217.264974,21.9394531 C217.606771,22.4589844 217.768555,23.1608073 217.750326,24.0449219 L217.750326,24.0449219 L217.668294,25.3574219 C217.431315,27.0436198 217.00293,28.2604167 216.383138,29.0078125 C215.763346,29.7552083 214.988607,30.1152344 214.058919,30.0878906 L214.270712,30.0873243 Z M225.350977,38.6875 L226.704492,31.6875 C227.533919,32.7174479 228.664128,33.250651 230.095117,33.2871094 C231.216211,33.3144531 232.237044,33.0364583 233.157617,32.453125 C234.07819,31.8697917 234.848372,30.9765625 235.468164,29.7734375 C236.087956,28.5703125 236.493555,27.1940104 236.684961,25.6445313 C236.757878,24.8789063 236.785221,24.2135417 236.766992,23.6484375 C236.712305,21.9075521 236.283919,20.5289714 235.481836,19.5126953 C234.679753,18.4964193 233.554102,17.9700521 232.104883,17.9335938 C230.655664,17.8971354 229.397852,18.4804688 228.331445,19.6835938 L228.331445,19.6835938 L228.591211,18.1933594 L225.036523,18.2070312 L221.495508,38.6875 L225.350977,38.6875 Z M229.459254,30.0873243 L229.247461,30.0878906 C228.135482,30.0514323 227.410872,29.5729167 227.073633,28.6523438 L227.073633,28.6523438 L228.181055,22.5546875 C228.910221,21.5703125 229.835352,21.0963542 230.956445,21.1328125 C231.612695,21.1510417 232.111719,21.4199219 232.453516,21.9394531 C232.795312,22.4589844 232.957096,23.1608073 232.938867,24.0449219 L232.938867,24.0449219 L232.856836,25.3574219 C232.619857,27.0436198 232.191471,28.2604167 231.57168,29.0078125 C230.951888,29.7552083 230.177148,30.1152344 229.247461,30.0878906 L229.459254,30.0873243 Z" id="RealWorldApp" fill-rule="nonzero"></path>
            <path d="M36.4619613,6.00295274 C35.5853071,5.9729307 34.6828713,6.1725679 33.7986068,6.56884894 L24.8258891,10.6081651 C24.0326371,11.0494465 23.7626673,12.0521284 24.2282904,12.8251394 C24.6848277,13.5831644 25.6767617,13.8323171 26.442679,13.3820056 L35.1304006,9.48678605 C35.636987,9.26013553 36.0434753,9.19108828 36.3498266,9.20159388 C36.8078783,9.21660299 37.0611521,9.35469749 37.3053401,9.653404 C37.5510464,9.95210282 37.7664203,10.4759459 37.7664203,11.2594856 L37.7664203,21.5172428 C37.7664203,23.605145 35.8204872,26.797711 33.7955006,27.7057118 L26.4411259,31.0019121 C25.6478738,31.4431936 25.3779041,32.4458754 25.8435271,33.2188865 C26.3000645,33.9769115 27.2919984,34.2260641 28.0579157,33.7757526 L35.1272943,30.6236489 C38.6718459,29.035589 41,25.1764129 41,21.5171275 L41,11.2593703 C41,9.88745531 40.6147544,8.61160473 39.813927,7.6344376 C39.0161321,6.65876907 37.7784958,6.0478763 36.4620002,6.00284131 L36.4619613,6.00295274 Z M19.8571381,14.0026822 C19.5462703,13.985304 19.2263029,14.0519248 18.9396902,14.2155886 L11.8762774,17.2556471 C8.3338952,18.787986 6,22.5087874 6,26.0411609 L6,35.9389997 C6,37.705965 6.7157747,39.3353729 8.1169279,40.2592701 C9.5166044,41.1847615 11.4379148,41.2311084 13.2090283,40.4649352 L22.1742636,36.5703146 C22.967369,36.1445165 23.2372888,35.1770162 22.7717518,34.4311282 C22.3152989,33.6997003 21.3235484,33.4592898 20.5577727,33.893801 L11.8763162,37.6493811 C10.8633308,38.0867843 10.3234911,37.9607728 9.9565198,37.7189014 C9.5895445,37.47703 9.234689,36.9455018 9.234689,35.9388847 L9.234689,26.0410459 C9.234689,24.0278489 11.1832904,20.9473389 13.2091447,20.0708268 L20.5578892,16.8917277 C21.3509946,16.4659297 21.6209144,15.4984294 21.1553774,14.7525413 C20.8702865,14.2963027 20.3759369,14.0312727 19.8588462,14.0023151 L19.8571381,14.0026822 Z M22.9784812,14.9998546 C22.107465,15.0116433 21.4112663,15.7091801 21.4216189,16.5583136 L21.4216189,17.0565621 C20.3861755,17.6515618 19.5729515,18.619148 19.2411394,19.8278914 C18.5686416,22.2757308 20.082539,24.833298 22.5918348,25.4902599 C23.4524606,25.7155494 23.9398262,26.5372583 23.7087333,27.3763359 C23.477648,28.2153764 22.6347997,28.6890767 21.7741361,28.4652216 L21.0097927,28.2673714 C20.1713888,28.0377527 19.3018515,28.5128763 19.0633639,29.3288252 C18.820432,30.1620984 19.2929665,31.0069433 20.1906529,31.2423331 L20.9549963,31.4401833 L20.9549963,31.4416288 C21.1120135,31.4820669 21.2705135,31.515281 21.4290135,31.5398293 C21.4719709,32.3427868 22.1400395,32.9883249 22.9769644,33.000137 C23.8657657,33.0114129 24.5901021,32.3081087 24.5797495,31.4416362 L24.5797495,30.949192 C25.6166718,30.3541923 26.426938,29.3822805 26.760229,28.1720953 C27.4327268,25.7242559 25.9188294,23.1681676 23.4095336,22.5112056 C22.5489078,22.2859161 22.0615422,21.4642072 22.2926351,20.6251297 C22.5237204,19.7860891 23.3665687,19.3109471 24.2272324,19.5348021 L24.9915758,19.7326523 C25.8299796,19.962271 26.7009958,19.4871474 26.9394834,18.6711985 C27.1824192,17.8379253 26.6713679,16.9728577 25.8107155,16.7576906 L25.0478511,16.5583986 C24.8908338,16.5179605 24.7323338,16.4977452 24.5738338,16.4731932 C24.5368036,15.6471292 23.8376281,14.9886145 22.9784812,14.9998546 L22.9784812,14.9998546 Z" id="Icon" transform="translate(23.500000, 23.500000) rotate(22.000000) translate(-23.500000, -23.500000) "></path>
        </g>
    </g>
</svg>